<?xml version="1.0" standalone="yes"?>
<svg xmlns="http://www.w3.org/2000/svg" width="640" height="640">
<path style="fill:#010101; stroke:none;" d="M0 0L0 640L640 640L640 0L0 0z"/>
<path style="fill:#01ff01; stroke:none;" d="M265 78L265 88C272.731 88 279.56 86.5684 284 94C272.989 94 266.025 96.8726 255.961 99.571C252.381 100.531 248.567 99.4957 245.015 100.702C206.31 113.848 173.02 135.923 141.441 161.864C131.93 169.677 123.119 180.541 115.34 190.004C111.274 194.949 108.537 202.06 102 204C101.599 213.165 94.965 216.278 91.5085 224.039C82.6786 243.865 68.4623 264.603 68 287L63 287L63 291L58 291L58 295L63 295L58.0586 315L57.0008 377L63 435L68 435C68.585 448.625 74.8746 464.85 81.0077 476.83C85.7766 486.146 90 491.124 90 502L96 502C97.7881 508.319 103.247 513.719 106.983 519.05C118.533 535.531 130.993 549.082 146.285 562.661C152.751 568.401 162.78 574.483 167 582C180.807 585.13 190.339 600.328 205 601C207.246 607.553 221.57 611.183 228 612L228 617L232 617L232 622L237 622L237 617C242.176 617.284 245.185 620.612 250.015 621.661C265.76 625.077 281.325 628.524 297 631.416C311.771 634.141 330.027 634.607 345 632.816C352.399 631.93 359.716 628.587 367 628.055C378.158 627.239 387.242 624.056 398 622.429C403.032 621.668 409.131 622.686 411 617C430.265 616.998 451.466 602.572 468 593.201C474.138 589.723 480.886 583.533 488 583C489.893 576.868 496.7 573.942 501.335 569.971C511.79 561.015 520.998 550.825 530.59 541C535.83 535.634 541.28 531.937 542 524L551 518C552.139 511.713 557.3 502.068 564 501L564 491C569.035 489.369 568.444 484.56 571.089 480.576C578.216 469.843 585.734 452.883 586 440L591 440C591 415.236 598.537 391.781 599.957 367C600.456 358.283 597.919 351.324 597.105 343C596.131 333.039 597.481 322.947 595.775 313C595.029 308.649 591.704 305.413 591.133 301C589.427 287.81 586.687 278.001 580.984 265.91C578.759 261.194 581.002 255.945 575 254L562 220L559 220C558.369 210.625 549.135 205.048 551.812 194.043C552.636 190.658 556.787 188.505 559.116 186.182C564.802 180.509 576.257 171.224 579.107 163.985C583.345 153.215 575.453 147.981 574 139L570 139L570 133L564 133C563.784 130.019 563.281 127.52 561.276 125.148C559.1 122.573 556.06 122.354 553.455 120.505C547.373 116.188 540.503 106.073 532 106.759C513.604 108.244 506.612 140.488 487.001 138.941C475.576 138.039 460.321 123.414 450 118.042C426.332 105.722 397.939 94 371 94C372.369 85.414 383.316 88 390 88L390 78C397.625 78 413.232 80.9455 419.487 75.9105C423.389 72.77 424.931 64.6874 424.996 60C425.192 45.8962 427.578 28.4816 423.228 15C422.147 11.6508 422.093 7.11981 419.486 4.51385C415.973 1.00226 409.501 2 405 2L369 2L275 2C264.97 2 245.934 -1.65344 237.094 3.31787C231.251 6.60376 232 13.2637 232 19L232 59C232 63.8137 230.512 71.7915 234.434 75.4359C240.534 81.1049 257.232 78 265 78z"/>
<path style="fill:#010101; stroke:none;" d="M303 89L351 89C346.067 81.5632 321.478 84.9305 313 85.0046C308.857 85.0408 305.382 85.4095 303 89M302 170L302 175L298 175L298 171C288.438 170.325 282.889 173.173 274 175.316C245.534 182.178 222.261 197.505 200.275 216.744C195.221 221.167 193.77 224.752 189.44 229.585C184.245 235.382 177.301 236.885 177 246L171 246L171 251C165.39 251.936 166.004 256.151 166 261C158.906 261.552 157.056 268.299 154.495 273.986C150.062 283.83 146.322 292.476 143.585 302.999C136.888 328.745 130.221 355.291 134.144 383C134.655 386.609 137.077 389.446 137.787 393C138.897 398.556 137.632 405.498 139.585 410.715C143.076 420.039 148.697 429.973 150 440L155 440C155.001 445.656 154.222 450.472 161 451L161 460L166 460L166 470L171 470C171.155 474.724 172.11 476.619 177 477L177 481L182 481C182.127 492.299 190.359 495.147 197.518 502.039C203.103 507.415 206.346 514.349 215 515L215 519C220.491 520.208 228.329 525.033 231 530C239.564 530.753 246.459 537.278 254.285 540.43C268.431 546.125 286.887 552 302 552C308.971 552 324.22 556.785 325 547L330 547C330.666 555.551 338.782 552.515 345 552.089C350.823 551.691 357.095 552.882 362.83 551.736C370.944 550.115 377.223 546.377 386 546L386 541L402 541C405.034 535.362 417.745 530.942 424 530L433 520C437.724 519.845 439.619 518.89 440 514C453.904 513.596 459.07 496.377 472 492L478 479C483.456 478.098 484.343 473.21 487.193 469.004C493.009 460.42 499.537 453.784 500 443L504 443L509.697 427.83L510 413L515 413L520.776 385L520.892 336.015L515.749 321L509.416 292.17L504 278L500 278L493 257L489 257L488 251L484 251L472 230L467 230L461 219C454.523 218.645 450.503 215.674 450 209L440 208C439.626 203.161 437.78 201.539 433 201C431.013 194.789 423.526 192.807 418.424 189.585C406.665 182.158 392.901 178.889 380 175.277C371.53 172.906 366.264 170.02 357 171L357 175L351 175L351 170L337.039 169.492L326.996 166.218L302 170z"/>
<path style="fill:#01ff01; stroke:none;" d="M309 199L309 203C300.842 204.053 290.787 206.12 287.703 215.015C283.752 226.409 287 243.959 287 256L287 349C287 362.954 282.467 385.046 292.714 395.811C297.036 400.352 304.279 399 310 399C324.916 399 342.334 401.508 356.985 398.772C361.36 397.955 366.118 393.35 366.852 388.91C368.884 376.616 367 362.469 367 350L367 270C367 253.491 371.375 229.834 366.427 214.104C363.193 203.819 348.635 207.343 346 199L325 199L325 203L313 203L313 199L309 199z"/>
</svg>
